<?xml version="1.0" encoding="UTF-8" standalone="no"?>
<!-- Created with Inkscape (http://www.inkscape.org/) -->

<svg
   xmlns:dc="http://purl.org/dc/elements/1.1/"
   xmlns:cc="http://creativecommons.org/ns#"
   xmlns:rdf="http://www.w3.org/1999/02/22-rdf-syntax-ns#"
   xmlns:svg="http://www.w3.org/2000/svg"
   xmlns="http://www.w3.org/2000/svg"
   xmlns:sodipodi="http://sodipodi.sourceforge.net/DTD/sodipodi-0.dtd"
   xmlns:inkscape="http://www.inkscape.org/namespaces/inkscape"
   width="640"
   height="480"
   id="svg2"
   version="1.1"
   inkscape:version="0.48.5 r10040"
   sodipodi:docname="clipping.svg"
   inkscape:export-filename="/home/m0/fossil/com.io7m.cirrus/io7m-renderer/io7m-r1-documentation/src/main/resources/com/io7m/r1/documentation/images/clipping.png"
   inkscape:export-xdpi="90"
   inkscape:export-ydpi="90">
  <defs
     id="defs4" />
  <sodipodi:namedview
     id="base"
     pagecolor="#ffffff"
     bordercolor="#666666"
     borderopacity="1.0"
     inkscape:pageopacity="0.0"
     inkscape:pageshadow="2"
     inkscape:zoom="1"
     inkscape:cx="310.81278"
     inkscape:cy="224.36559"
     inkscape:document-units="px"
     inkscape:current-layer="layer4"
     showgrid="true"
     borderlayer="true"
     inkscape:showpageshadow="false"
     inkscape:window-width="1142"
     inkscape:window-height="826"
     inkscape:window-x="0"
     inkscape:window-y="0"
     inkscape:window-maximized="0">
    <inkscape:grid
       type="xygrid"
       id="grid2985"
       empspacing="8"
       visible="true"
       enabled="true"
       snapvisiblegridlinesonly="true"
       spacingx="16px"
       spacingy="16px" />
  </sodipodi:namedview>
  <metadata
     id="metadata7">
    <rdf:RDF>
      <cc:Work
         rdf:about="">
        <dc:format>image/svg+xml</dc:format>
        <dc:type
           rdf:resource="http://purl.org/dc/dcmitype/StillImage" />
        <dc:title></dc:title>
      </cc:Work>
    </rdf:RDF>
  </metadata>
  <g
     inkscape:groupmode="layer"
     id="layer5"
     inkscape:label="bg"
     sodipodi:insensitive="true">
    <rect
       style="fill:#ffffff;stroke:#000000;stroke-width:2;stroke-linecap:round;stroke-linejoin:round;stroke-miterlimit:4;stroke-opacity:1;stroke-dasharray:none;stroke-dashoffset:0"
       id="rect3769"
       width="640"
       height="480"
       x="0"
       y="0" />
  </g>
  <g
     inkscape:label="grid"
     inkscape:groupmode="layer"
     id="layer1"
     transform="translate(0,-572.36218)"
     sodipodi:insensitive="true">
    <path
       d="m 0,572.36218 0,480.00002 m 16,-480.00002 0,480.00002 m 16,-480.00002 0,480.00002 m 16,-480.00002 0,480.00002 m 16,-480.00002 0,480.00002 m 16,-480.00002 0,480.00002 m 16,-480.00002 0,480.00002 m 16,-480.00002 0,480.00002 m 16,-480.00002 0,480.00002 m 16,-480.00002 0,480.00002 m 16,-480.00002 0,480.00002 m 16,-480.00002 0,480.00002 m 16,-480.00002 0,480.00002 m 16,-480.00002 0,480.00002 m 16,-480.00002 0,480.00002 m 16,-480.00002 0,480.00002 m 16,-480.00002 0,480.00002 m 16,-480.00002 0,480.00002 m 16,-480.00002 0,480.00002 m 16,-480.00002 0,480.00002 m 16,-480.00002 0,480.00002 m 16,-480.00002 0,480.00002 m 16,-480.00002 0,480.00002 m 16,-480.00002 0,480.00002 m 16,-480.00002 0,480.00002 m 16,-480.00002 0,480.00002 m 16,-480.00002 0,480.00002 m 16,-480.00002 0,480.00002 m 16,-480.00002 0,480.00002 m 16,-480.00002 0,480.00002 m 16,-480.00002 0,480.00002 m 16,-480.00002 0,480.00002 m 16,-480.00002 0,480.00002 m 16,-480.00002 0,480.00002 m 16,-480.00002 0,480.00002 m 16,-480.00002 0,480.00002 m 16,-480.00002 0,480.00002 m 16,-480.00002 0,480.00002 m 16,-480.00002 0,480.00002 m 16,-480.00002 0,480.00002 m 16,-480.00002 0,480.00002 M 0,572.36218 l 640,0 m -640,16 640,0 m -640,16 640,0 m -640,16 640,0 m -640,16 640,0 m -640,16 640,0 m -640,16 640,0 m -640,16 640,0 m -640,16 640,0 m -640,16 640,0 m -640,16 640,0 m -640,16 640,0 m -640,16 640,0 m -640,16 640,0 m -640,16 640,0 m -640,16 640,0 m -640,16 640,0 m -640,16 640,0 m -640,16 640,0 m -640,16 640,0 m -640,16 640,0 m -640,16 640,0 m -640,16 640,0 m -640,16 640,0 m -640,16 640,0 m -640,16 640,0 m -640,16 640,0 m -640,16.00002 640,0 m -640,16 640,0 m -640,16 640,0 m -640,16 640,0"
       style="fill:none;stroke:#e6e6e6;stroke-width:1pt;stroke-linecap:butt;stroke-linejoin:miter;stroke-opacity:1"
       id="path2987"
       inkscape:connector-curvature="0" />
    <rect
       style="fill:none;stroke:#000000;stroke-width:2;stroke-linecap:round;stroke-linejoin:round;stroke-miterlimit:4;stroke-opacity:1;stroke-dasharray:none;stroke-dashoffset:0"
       id="rect3771"
       width="640"
       height="480"
       x="0"
       y="0"
       transform="translate(0,572.36218)" />
  </g>
  <g
     inkscape:groupmode="layer"
     id="layer2"
     inkscape:label="edges"
     sodipodi:insensitive="true">
    <path
       style="fill:none;stroke:#000000;stroke-width:3;stroke-linecap:round;stroke-linejoin:round;stroke-miterlimit:4;stroke-opacity:1;stroke-dasharray:none"
       d="m 128,480 0,-320 512,0"
       id="path2990"
       inkscape:connector-curvature="0" />
  </g>
  <g
     inkscape:groupmode="layer"
     id="layer3"
     inkscape:label="triangles">
    <path
       style="fill:none;stroke:#000080;stroke-width:4;stroke-linecap:round;stroke-linejoin:round;stroke-miterlimit:4;stroke-opacity:1;stroke-dasharray:none"
       d="M 160,416 400,320 48,48 z"
       id="path3761"
       inkscape:connector-curvature="0"
       sodipodi:nodetypes="cccc" />
  </g>
  <g
     inkscape:groupmode="layer"
     id="layer4"
     inkscape:label="results">
    <path
       style="fill:#ffaaaa;stroke:#ff0000;stroke-width:2;stroke-linecap:round;stroke-linejoin:round;stroke-miterlimit:4;stroke-opacity:1;stroke-dasharray:none"
       d="m 128,160 0,144 32,112 z"
       id="path3764"
       inkscape:connector-curvature="0"
       sodipodi:nodetypes="cccc" />
    <path
       style="fill:#ffaaaa;stroke:#ff0000;stroke-width:2;stroke-linecap:round;stroke-linejoin:round;stroke-miterlimit:4;stroke-opacity:1;stroke-dasharray:none"
       d="m 128,160 32,256 240,-96 z"
       id="path3766"
       inkscape:connector-curvature="0"
       sodipodi:nodetypes="cccc" />
    <path
       style="fill:#ffaaaa;stroke:#ff0000;stroke-width:2;stroke-linecap:round;stroke-linejoin:round;stroke-opacity:1;stroke-miterlimit:4;stroke-dasharray:none"
       d="M 128,160 400,320 192,160 z"
       id="path3773"
       inkscape:connector-curvature="0" />
  </g>
</svg>
